# xmcd
# 
# Track frame offsets:
#     150
#     26125
#     44867
#     66877
#     86037
#     109190
#     126855
#     143980
#     162272
#     177465
# 
# Disc length: 2505
# 
# Revision: 3
# Processed by: cddbd v1.5.2PL0 Copyright (c) Steve Scherf et al.
# Submitted via: fre:ac v1.0.17
# 
DISCID=9709c70a
DTITLE=The Jim Campilongo Band - Table For One
DYEAR=1998
DGENRE=Instrumental
TTITLE0=The Grass Is Greener
TTITLE1=E Waltz
TTITLE2=Wishful Thinking
TTITLE3=Sarah
TTITLE4=Feisty's Ride
TTITLE5=D'Boat
TTITLE6=Strange Face
TTITLE7=Too Far Gone
TTITLE8=Table For One
TTITLE9=This Old Man
EXTD=
EXTT0=
EXTT1=
EXTT2=
EXTT3=
EXTT4=
EXTT5=
EXTT6=
EXTT7=
EXTT8=
EXTT9=
PLAYORDER=
